PathFileType	4	(X/Y/Z)	Walk1_0-155.trc
DataRate	CameraRate	NumFrames	NumMarkers	Units	OrigDataRate	OrigDataStartFrame	OrigNumFrames
30	30	11	22	m	30	96	155
Frame#	Time	Hip			RHip			RKnee			RAnkle			RBigToe			RSmallToe			RHeel			LHip			LKnee			LAnkle			LBigToe			LSmallToe			LHeel			Neck			Head			Nose			RShoulder			RElbow			RWrist			LShoulder			LElbow			LWrist		
		X1	Y1	Z1	X2	Y2	Z2	X3	Y3	Z3	X4	Y4	Z4	X5	Y5	Z5	X6	Y6	Z6	X7	Y7	Z7	X8	Y8	Z8	X9	Y9	Z9	X10	Y10	Z10	X11	Y11	Z11	X12	Y12	Z12	X13	Y13	Z13	X14	Y14	Z14	X15	Y15	Z15	X16	Y16	Z16	X17	Y17	Z17	X18	Y18	Z18	X19	Y19	Z19	X20	Y20	Z20	X21	Y21	Z21	X22	Y22	Z22
97	3.2333333333333334	0.14164297781933288	0.8886326584464205	0.35107817525511653	0.1449102122657304	0.8922213083681966	0.46310046464116494	0.26238559876866363	0.5587594214313528	0.45901162687180086	0.005953430408874993	0.3047982621048985	0.43044660859794337	0.0	0.0	0.0	0.0	0.0	0.0	0.0	0.0	0.0	0.1396929615072618	0.8859926657250736	0.23932466390366597	0.14381939540102517	0.5204163825374154	0.26466684618574327	0.11467566711454943	0.10742667294989247	0.28141333761461246	0.0	0.0	0.0	0.0	0.0	0.0	0.0	0.0	0.0	0.08109739659621511	1.4647600295094458	0.35479608152494724	0.21869436175874069	1.7949899968265433	0.3464388811002999	0.22228715209558145	1.6913508893111877	0.33839521158747377	0.0394250421816326	1.473265255409752	0.5125898649135311	0.08865465877008717	1.1685346537821764	0.5870129988962566	0.11438719415560243	0.9122392288524221	0.604062760662465	0.08492792105317301	1.4627011811190287	0.1582258153088583	0.1579046270818952	1.169060237395052	0.08772188572688895	0.26771878003044763	0.9226492726397746	0.08703751898615965
98	3.2666666666666666	0.17389050258582087	0.8924734200590204	0.34982161711007265	0.18232441803216531	0.8961553478188571	0.46746441268219435	0.37424314603656356	0.5834070593467985	0.4679311639069025	0.10329486853646494	0.27225938080908396	0.42576351312370564	0.0	0.0	0.0	0.0	0.0	0.0	0.0	0.0	0.0	0.16730971024741967	0.889513484863108	0.23253334718644886	0.1552051783413999	0.5185181070844035	0.261339552781268	0.11258468816648935	0.10582948586536806	0.29233171949925485	0.0	0.0	0.0	0.0	0.0	0.0	0.0	0.0	0.0	0.12368054073630239	1.469939556378669	0.3586184781424298	0.26460842113696925	1.801058342779145	0.350290981281184	0.26143892831571325	1.6971498346539915	0.33392559094240454	0.0703032466557138	1.4822049550682028	0.5081538926430598	0.10305256516223148	1.1739519709152166	0.5854873878710382	0.11553152831960954	0.9128798307371528	0.6037204036591136	0.12024217696967973	1.463647248851117	0.1351347077034476	0.21085992853386587	1.1750746060154105	0.09288863643559873	0.3426341817335661	0.9369643089838936	0.09199084183068645
99	3.3	0.21098367638160986	0.8937494076034366	0.35267728946313126	0.2262771174858625	0.8989186012520856	0.4718152383257391	0.4289765131566079	0.5888178521412698	0.4617562864049465	0.22871041443933846	0.2417638675305301	0.4385497208696555	0.0	0.0	0.0	0.0	0.0	0.0	0.0	0.0	0.0	0.1980431871845223	0.889381374655878	0.23421560067384264	0.17241585617817776	0.5198371590495298	0.2537197833988639	0.13596281899001952	0.12268407937016952	0.2745554705426217	0.0	0.0	0.0	0.0	0.0	0.0	0.0	0.0	0.0	0.16479955506673927	1.4712744121051549	0.36087541914118954	0.3528430192460836	1.7792873301891106	0.3150930676270057	0.3055314344458861	1.6939048302902735	0.33834809006392297	0.16047369810793713	1.4720715804169398	0.563119114856351	0.11369161174771342	1.1695195847792672	0.5872952852515155	0.1268242697027797	0.9242532304078058	0.6097694742710249	0.17669404473414382	1.4719503703892016	0.16449723944860706	0.2590357552299978	1.182776786622455	0.09006773860900594	0.3509746292679098	0.9479735775436693	0.03863797686834713
100	3.3333333333333335	0.2460629415864114	0.885161296573738	0.35326243046611433	0.2658526205539994	0.8914262394098812	0.47263859690316173	0.46832027210279864	0.5761987835589183	0.45499738831138725	0.329627274226515	0.19271724118323105	0.4342751035508887	0.0	0.0	0.0	0.0	0.0	0.0	0.0	0.0	0.0	0.22830728923290797	0.8803587216192018	0.23447220402110466	0.19990575822988332	0.49643269512300386	0.27256862883039445	0.13246003857532399	0.10959047366723317	0.28354903171759493	0.0	0.0	0.0	0.0	0.0	0.0	0.0	0.0	0.0	0.16958206359098962	1.4776574511089862	0.33114901483568593	0.40388360514450744	1.7782584335385119	0.31172512256816165	0.3392367838100926	1.7014706538582025	0.31945619822853555	0.1482444761669567	1.4766281801271917	0.5210943944479792	0.1268888640829565	1.1778778431010763	0.5767715162394149	0.14714481447090055	0.9304735174788409	0.6208351701963394	0.2138795059960555	1.4732291795956336	0.1605679773280076	0.3017012020485526	1.1910424093668517	0.08730904421550476	0.4704774539237016	0.9692168830478485	0.0922788224252671
101	3.3666666666666667	0.28355243098565125	0.8896561895125306	0.3578065339642883	0.30654806503533505	0.8934488065028939	0.47671523794467396	0.5058914585802242	0.5661573249956344	0.44318144844741925	0.4627870798136532	0.1582745626922798	0.4515984742067361	0.0	0.0	0.0	0.0	0.0	0.0	0.0	0.0	0.0	0.2625774750617236	0.8866491160161751	0.2395669586350375	0.19672434693393803	0.5130376656741106	0.25372432838242676	0.1304809066482528	0.1174391009483878	0.284924484377712	0.0	0.0	0.0	0.0	0.0	0.0	0.0	0.0	0.0	0.21231831424743106	1.4760815328272636	0.3340258955001524	0.423818251201692	1.793443602053599	0.34839762580339	0.43817977039954376	1.678457534456999	0.34042405120251806	0.18705906012317128	1.4741334483181419	0.522301399498695	0.14360314998454116	1.1799238364176108	0.5753969283255336	0.16471173597964278	0.9229898247188776	0.626356005178379	0.2616777058291237	1.4735206949778983	0.1671380479439561	0.34442291803223507	1.1919350388172292	0.08672681902441089	0.534402180323299	0.9822038472748235	0.1009483956400372
102	3.4	0.31956391300277487	0.8831089621835313	0.357584023756762	0.34016902376007724	0.8852886983319266	0.47349436318529076	0.5289232832355834	0.5509484527990506	0.4554648342627402	0.5763404910243645	0.15328338570683356	0.4684914209835203	0.0	0.0	0.0	0.0	0.0	0.0	0.0	0.0	0.0	0.30044924016237934	0.8816725651091784	0.24220439125201657	0.21124466669644676	0.5085797336099663	0.25566207254196793	0.12928805377315022	0.12537526558270445	0.28983236262326945	0.0	0.0	0.0	0.0	0.0	0.0	0.0	0.0	0.0	0.24902329010468818	1.4722772992411737	0.32980427871154666	0.49361311111381834	1.7656606462214475	0.31923664351969927	0.49978595903884404	1.670036161239338	0.3249361404098823	0.22816085187941568	1.4686937121253867	0.5188610882017834	0.18172586749371436	1.177048807824003	0.5760159828938072	0.19103859186603886	0.9202237088725114	0.6292034509884374	0.30410109720734374	1.4720388049242115	0.17019089359963924	0.38652401364747263	1.1925801662693483	0.08698880215616087	0.5884843994374095	0.9882435383030405	0.10745318111869384
103	3.433333333333333	0.3632502742150702	0.8711466740266833	0.3648725966006879	0.385547673961237	0.874000573857921	0.47578004693924425	0.5615906699431251	0.5054157995973001	0.47791740405863486	0.6701007801886606	0.1678253027799126	0.4787411879666892	0.0	0.0	0.0	0.0	0.0	0.0	0.0	0.0	0.0	0.3419217358189193	0.8693907051494437	0.2543582126928064	0.26103250073550954	0.48889073724310667	0.28342063550632435	0.1279193150164766	0.118776337645964	0.29494118964733523	0.0	0.0	0.0	0.0	0.0	0.0	0.0	0.0	0.0	0.2963174128050794	1.46365776719768	0.3348532884635021	0.4775256972765188	1.784985235648042	0.3713886965323502	0.5286715585348789	1.6657622133790637	0.3363232006805579	0.2685020250063242	1.4589368199327157	0.5205008268044015	0.22421942717489696	1.16837813795419	0.5829104687820175	0.21504668379849762	0.917847506678011	0.6353408860130348	0.3527570567597483	1.463355151887996	0.17465268385528845	0.43425265458937773	1.190887827568663	0.08701640699950365	0.6407154209938795	0.9970411754858791	0.1081326340178272
104	3.466666666666667	0.40498841730705937	0.8693678807273968	0.3694916092241596	0.42733581800361053	0.8703079874696664	0.482770675414644	0.6136627024764078	0.4875342111240865	0.47950907691340355	0.737261416206118	0.16665058319973533	0.4712455319200279	0.0	0.0	0.0	0.0	0.0	0.0	0.0	0.0	0.0	0.38412019012985194	0.8690296542852336	0.25688536721863275	0.27135278716547245	0.505424951529669	0.2660431550085765	0.12820200788643007	0.10991462391262696	0.28837788007689796	0.0	0.0	0.0	0.0	0.0	0.0	0.0	0.0	0.0	0.3441940607179428	1.4586688879886063	0.34067920897151577	0.5161942986187059	1.7790649173782345	0.37749970047079695	0.5811574891714153	1.6600031860299949	0.33580840508480475	0.31895004466979215	1.4527128114725159	0.5244108368586364	0.26244517704141124	1.1631940632921598	0.5848345593770888	0.24856668423602102	0.9070590448514729	0.6437887319699096	0.39769469819804565	1.458271459873979	0.1820667394782598	0.48154633007483977	1.182704852814715	0.09566704947460612	0.6876473138686348	0.9952601876804151	0.10929186539251158
105	3.5	0.455189828367753	0.8656116228516094	0.3822057292811209	0.4813170094725843	0.8682486696535319	0.49895491964718874	0.6642902197355227	0.47945209498762514	0.4797284694754268	0.7743334102206675	0.14788114623846257	0.46413006440764254	0.0	0.0	0.0	0.0	0.0	0.0	0.0	0.0	0.0	0.4313211523154605	0.8634579830753444	0.2662220996631759	0.3099431525442145	0.5087351812177833	0.26642802196166687	0.1339729106386928	0.11647713768761668	0.2795068533274942	0.0	0.0	0.0	0.0	0.0	0.0	0.0	0.0	0.0	0.3911128665825228	1.450775771161709	0.3471064674790814	0.5556371997054201	1.7723910190829153	0.3830006647687408	0.6237252428434753	1.6530078350855484	0.3408647017224973	0.3662515063123001	1.4446448927443731	0.5288227432761566	0.2980410264966924	1.1544213793842402	0.5858742119228049	0.2774402613951621	0.8958092387526455	0.6393395393064731	0.4114381844129525	1.458079984060986	0.1607317374307858	0.5271643262071881	1.175123937272411	0.10353357549086774	0.678822826456097	0.9909295107219277	0.07407154786284749
106	3.533333333333333	0.5097767234891348	0.852169501110331	0.3836867793605216	0.5356429509561691	0.8543354448870012	0.49929373180405207	0.7217385411966049	0.4761437348826632	0.4796883855262812	0.7922913908381827	0.14252537178973987	0.45709735954909575	0.0	0.0	0.0	0.0	0.0	0.0	0.0	0.0	0.0	0.4856079030487815	0.8503627352000822	0.26874683123845383	0.3466382916955347	0.5003939612230832	0.27068473631957696	0.14280898261449718	0.1267071630703724	0.2838618293492816	0.0	0.0	0.0	0.0	0.0	0.0	0.0	0.0	0.0	0.4344964393921566	1.4388268025111879	0.3554411655738647	0.6431572623080327	1.7555228769949276	0.3727750245176657	0.6556843984180539	1.6524838929355723	0.3620665599296565	0.40897188297241777	1.435433912677011	0.5404616648447009	0.3487502484142101	1.146609270035264	0.5935662511193465	0.3269016106211258	0.892396460163303	0.6502717928729903	0.4876295813243577	1.4392203509665802	0.19467321356015416	0.568166683969475	1.166917549833427	0.1121436980408906	0.7585376188642893	0.9747155381515192	0.11609384267068529
107	3.566666666666667	0.5609862828059048	0.8480149869803704	0.3955543859247013	0.5872009586825323	0.8513352322427312	0.510103391266405	0.7102199853307916	0.5098531345318771	0.4572418159279664	0.814221222047547	0.12500892924077192	0.4516999204316098	0.0	0.0	0.0	0.0	0.0	0.0	0.0	0.0	0.0	0.5367610124974053	0.8453595262916982	0.28183087502638116	0.4020148891044576	0.5045706498417272	0.2780088761968171	0.16485150411884955	0.1422710203689128	0.28639760020644195	0.0	0.0	0.0	0.0	0.0	0.0	0.0	0.0	0.0	0.4774845871664066	1.4305792441971719	0.35922467690006893	0.6765583592631836	1.740679051205192	0.3727187330953356	0.697174398163902	1.6512908432633844	0.3711018537134919	0.4510184030469409	1.4279620020174	0.5448463913796464	0.3982945160758616	1.1403264653341785	0.5969761444359001	0.3788699318891109	0.8851053724094651	0.6547222008815458	0.5318264425475817	1.435677043387571	0.19861392638987346	0.610243199629537	1.1583203239433353	0.12390960039004914	0.7900451411487877	0.960069122096103	0.117986254849762
